HIERARCHY
ROOT Hips
{
	OFFSET -0.001795 -0.223333 0.028219
	CHANNELS 6 Xposition Yposition Zposition Zrotation Yrotation Xrotation 
	JOINT LeftUpLeg
	{
		OFFSET 0.069520 -0.091406 -0.006815
		CHANNELS 3 Zrotation Yrotation Xrotation
		JOINT LeftLeg
		{
			OFFSET 0.034277 -0.375199 -0.004496
			CHANNELS 3 Zrotation Yrotation Xrotation
			JOINT LeftFoot
			{
				OFFSET -0.013596 -0.397961 -0.043693
				CHANNELS 3 Zrotation Yrotation Xrotation
				JOINT LeftToe
				{
					OFFSET 0.026358 -0.055791 0.119288
					CHANNELS 3 Zrotation Yrotation Xrotation
					End Site
					{
						OFFSET 0.000000 0.000000 0.000000
					}
				}
			}
		}
	}
	JOINT RightUpLeg
	{
		OFFSET -0.067670 -0.090522 -0.004320
		CHANNELS 3 Zrotation Yrotation Xrotation
		JOINT RightLeg
		{
			OFFSET -0.038290 -0.382569 -0.008850
			CHANNELS 3 Zrotation Yrotation Xrotation
			JOINT RightFoot
			{
				OFFSET 0.015774 -0.398415 -0.042312
				CHANNELS 3 Zrotation Yrotation Xrotation
				JOINT RightToe
				{
					OFFSET -0.025372 -0.048144 0.123348
					CHANNELS 3 Zrotation Yrotation Xrotation
					End Site
					{
						OFFSET 0.000000 0.000000 0.000000
					}
				}
			}
		}
	}
	JOINT Spine
	{
		OFFSET -0.002533 0.108963 -0.026696
		CHANNELS 3 Zrotation Yrotation Xrotation
		JOINT Spine1
		{
			OFFSET 0.005487 0.135180 0.001092
			CHANNELS 3 Zrotation Yrotation Xrotation
			JOINT Spine2
			{
				OFFSET 0.001457 0.052922 0.025425
				CHANNELS 3 Zrotation Yrotation Xrotation
				JOINT Neck
				{
					OFFSET -0.002778 0.213870 -0.042857
					CHANNELS 3 Zrotation Yrotation Xrotation
					JOINT Head
					{
						OFFSET 0.005152 0.064970 0.051349
						CHANNELS 3 Zrotation Yrotation Xrotation
						End Site
						{
							OFFSET 0.000000 0.000000 0.000000
						}
					}
				}
				JOINT LeftShoulder
				{
					OFFSET 0.078845 0.121749 -0.034090
					CHANNELS 3 Zrotation Yrotation Xrotation
					JOINT LeftArm
					{
						OFFSET 0.090977 0.030469 -0.008868
						CHANNELS 3 Zrotation Yrotation Xrotation
						JOINT LeftForeArm
						{
							OFFSET 0.259612 -0.012772 -0.027456
							CHANNELS 3 Zrotation Yrotation Xrotation
							JOINT LeftHand
							{
								OFFSET 0.249234 0.008986 -0.001171
								CHANNELS 3 Zrotation Yrotation Xrotation
								End Site
								{
									OFFSET 0.000000 0.000000 0.000000
								}
							}
						}
					}
				}
				JOINT RightShoulder
				{
					OFFSET -0.081759 0.118833 -0.038615
					CHANNELS 3 Zrotation Yrotation Xrotation
					JOINT RightArm
					{
						OFFSET -0.096012 0.032551 -0.009143
						CHANNELS 3 Zrotation Yrotation Xrotation
						JOINT RightForeArm
						{
							OFFSET -0.253742 -0.013329 -0.021401
							CHANNELS 3 Zrotation Yrotation Xrotation
							JOINT RightHand
							{
								OFFSET -0.255298 0.007772 -0.005559
								CHANNELS 3 Zrotation Yrotation Xrotation
								End Site
								{
									OFFSET 0.000000 0.000000 0.000000
								}
							}
						}
					}
				}
			}
		}
	}
}
MOTION
Frames: 15
Frame Time: 0.050000
-0.000229 0.936567 -0.051228 -0.751100 -3.736341 -3.214380 1.973260 0.549206 6.856630 -1.148744 0.298000 -6.516635 16.254313 28.558867 17.950600 0.000000 0.000000 0.000000 -6.221420 0.056605 2.417315 3.048428 -0.352037 -4.284728 -9.036583 -21.734228 16.435904 0.000000 0.000000 0.000000 6.620896 -0.256084 2.830653 -5.644452 2.024160 -20.477639 -1.689270 9.096616 30.957395 10.515847 -2.429408 -32.439827 0.000000 0.000000 0.000000 -24.528729 -8.862059 1.664611 -54.504116 0.237466 -8.731824 -9.974208 -26.444898 3.409101 0.000000 0.000000 0.000000 32.097919 -2.776417 -1.002745 61.476424 1.318403 -8.860542 3.553821 28.022989 2.788474 0.000000 0.000000 0.000000 
-0.000861 0.936211 -0.051785 -0.643587 -4.188139 -3.037647 1.699500 0.556485 6.691290 -0.852810 0.282320 -6.548329 16.558065 28.907414 18.215258 0.000000 0.000000 0.000000 -6.492633 0.088773 2.224165 3.400100 -0.370037 -4.513895 -8.828647 -21.442423 16.221278 0.000000 0.000000 0.000000 6.453943 -0.254418 2.823332 -5.641695 2.010419 -20.578409 -1.725603 8.988012 31.198337 10.478466 -2.539089 -32.102483 0.000000 0.000000 0.000000 -24.561809 -8.497086 1.615633 -54.640060 0.106362 -8.763584 -10.133613 -26.934859 3.547608 0.000000 0.000000 0.000000 32.135206 -2.318954 -0.857699 61.085279 0.784103 -9.082959 4.082091 28.771528 2.979669 0.000000 0.000000 0.000000 
-0.001455 0.935757 -0.052415 -0.627366 -4.096539 -2.903864 1.621632 0.548213 6.563437 -0.666207 0.274650 -6.677553 16.530316 28.884238 18.132175 0.000000 0.000000 0.000000 -6.649538 0.103615 2.035133 3.730317 -0.389096 -4.481418 -8.908439 -21.558868 16.098142 0.000000 0.000000 0.000000 6.197083 -0.246827 2.764501 -5.581385 1.993359 -20.623758 -1.932180 8.697046 31.383549 10.413186 -2.554661 -32.067879 0.000000 0.000000 0.000000 -24.446286 -8.297129 1.604718 -55.178830 0.184613 -8.937391 -10.150276 -27.277789 3.626457 0.000000 0.000000 0.000000 32.100703 -2.162465 -0.838520 61.354599 0.487859 -9.251142 4.733888 28.945175 3.153538 0.000000 0.000000 0.000000 
-0.002040 0.935330 -0.053230 -0.527021 -4.249759 -2.666738 1.255321 0.556051 6.409981 -0.159645 0.254616 -6.951098 16.653502 29.011086 18.308829 0.000000 0.000000 0.000000 -6.814783 0.137521 1.493574 3.906643 -0.396066 -4.134567 -8.896068 -21.550110 15.836996 0.000000 0.000000 0.000000 5.786041 -0.231285 2.638936 -5.483590 1.960873 -20.642893 -1.968751 8.305011 31.680827 10.233593 -2.599996 -31.771582 0.000000 0.000000 0.000000 -24.609998 -7.995677 1.618565 -55.370823 0.056270 -8.982572 -10.283100 -27.681230 3.758456 0.000000 0.000000 0.000000 31.715495 -1.412641 -0.505006 61.532131 0.278531 -9.346523 5.675247 29.451957 3.422730 0.000000 0.000000 0.000000 
-0.002540 0.935106 -0.054016 -0.458932 -4.042805 -2.563826 1.218942 0.545786 6.300784 -0.144685 0.259002 -7.105146 16.528926 28.861918 18.228945 0.000000 0.000000 0.000000 -7.158294 0.163135 1.103969 4.458651 -0.431459 -3.669424 -9.042524 -21.766186 15.710244 0.000000 0.000000 0.000000 5.326058 -0.233685 2.742480 -5.341043 1.921805 -20.752333 -2.166470 7.886921 31.810995 10.237467 -2.661832 -31.785765 0.000000 0.000000 0.000000 -24.789862 -7.629504 1.506524 -55.617364 0.054730 -9.068544 -10.387112 -27.655204 3.808729 0.000000 0.000000 0.000000 31.736965 -0.942155 -0.289523 61.831787 -0.122422 -9.580375 6.039243 30.153235 3.609896 0.000000 0.000000 0.000000 
-0.002955 0.934679 -0.054630 -0.243963 -3.994860 -2.382848 0.956107 0.556260 6.265245 -0.046284 0.268964 -7.512695 16.487243 28.798758 18.279070 0.000000 0.000000 0.000000 -7.582444 0.197966 0.601561 4.849989 -0.458218 -3.209992 -9.130623 -21.903458 15.462346 0.000000 0.000000 0.000000 4.736168 -0.219235 2.684337 -5.171054 1.870854 -20.914424 -2.290520 7.870676 32.076732 10.296909 -2.772185 -31.356377 0.000000 0.000000 0.000000 -24.513543 -7.595201 1.517822 -55.748370 -0.104119 -9.049125 -10.919930 -27.586808 3.932761 0.000000 0.000000 0.000000 31.784436 -0.673994 -0.087716 61.785147 -0.120956 -9.603792 6.589195 30.248758 3.767272 0.000000 0.000000 0.000000 
-0.003214 0.934372 -0.054855 -0.083486 -3.789887 -2.271623 0.669149 0.587727 6.455176 0.203850 0.282045 -8.168684 16.325474 28.582543 18.328531 0.000000 0.000000 0.000000 -8.118967 0.228744 0.085365 5.526806 -0.513140 -2.481458 -9.289359 -22.143689 15.250862 0.000000 0.000000 0.000000 4.241872 -0.205478 2.621129 -5.238567 1.894727 -20.833685 -2.409960 7.571046 32.081395 10.075694 -2.701750 -31.255134 0.000000 0.000000 0.000000 -24.877796 -7.227548 1.337775 -55.699916 -0.163696 -9.023241 -10.836036 -27.474952 3.909532 0.000000 0.000000 0.000000 31.562753 -0.091788 0.264348 62.046216 -0.243000 -9.683743 6.831675 30.700580 3.892444 0.000000 0.000000 0.000000 
-0.003515 0.933980 -0.054959 0.164889 -3.950027 -1.897634 0.378874 0.578746 6.173898 0.237948 0.291448 -8.417668 16.426628 28.684429 18.477817 0.000000 0.000000 0.000000 -8.476251 0.264551 -0.469351 5.712739 -0.524922 -2.326250 -9.276603 -22.136855 15.036487 0.000000 0.000000 0.000000 3.721041 -0.169078 2.216790 -5.162453 1.869242 -20.734445 -2.606357 7.923388 32.182401 9.833573 -2.621883 -30.667317 0.000000 0.000000 0.000000 -24.784190 -7.234956 1.269281 -55.661225 -0.205206 -8.986567 -10.905507 -27.289604 3.881046 0.000000 0.000000 0.000000 31.636118 0.385594 0.702161 62.100952 0.198065 -9.497758 7.015392 31.046943 4.008403 0.000000 0.000000 0.000000 
-0.004148 0.933749 -0.055102 0.410057 -3.527364 -1.751608 0.020521 0.601174 6.231417 0.516202 0.301419 -8.944385 16.132797 28.309020 18.476742 0.000000 0.000000 0.000000 -8.666036 0.271147 -0.832578 5.647795 -0.530944 -1.853041 -9.549234 -22.548006 14.912707 0.000000 0.000000 0.000000 3.418872 -0.154978 2.079369 -5.501655 1.976734 -20.561188 -2.761315 7.848938 32.321997 9.890449 -2.620930 -30.727276 0.000000 0.000000 0.000000 -24.452900 -7.233689 1.229471 -55.877860 -0.624498 -8.845618 -10.135955 -26.972748 3.639676 0.000000 0.000000 0.000000 31.588558 0.916082 1.174113 61.980882 0.929793 -9.148467 6.817402 30.829706 3.923557 0.000000 0.000000 0.000000 
-0.005474 0.933999 -0.055426 0.580260 -3.032317 -1.457006 -0.344408 0.614026 6.187093 1.042732 0.311901 -9.604979 15.775267 27.811898 18.706657 0.000000 0.000000 0.000000 -8.257362 0.275391 -1.600371 4.745057 -0.467065 -0.912886 -9.893421 -23.074528 14.865624 0.000000 0.000000 0.000000 2.768367 -0.151922 2.190076 -5.566736 2.009164 -20.319700 -2.778408 7.968428 32.341231 9.888921 -2.672564 -29.955858 0.000000 0.000000 0.000000 -24.433146 -7.592199 1.284774 -55.696750 -0.446988 -8.862038 -9.585587 -27.308446 3.524591 0.000000 0.000000 0.000000 31.865732 1.390171 1.698832 61.433540 1.468700 -8.876100 7.102474 31.512783 4.121118 0.000000 0.000000 0.000000 
-0.008058 0.934190 -0.055519 0.611559 -2.623989 -1.379693 -0.720437 0.600828 5.876160 2.014680 0.263281 -9.289237 15.568985 27.529788 18.810950 0.000000 0.000000 0.000000 -7.809698 0.277109 -2.139812 4.199466 -0.419341 0.066028 -10.180437 -23.515552 14.711414 0.000000 0.000000 0.000000 2.329787 -0.175737 2.740628 -5.965332 2.140549 -19.981862 -2.587387 8.252341 32.399251 9.935541 -2.588410 -30.108339 0.000000 0.000000 0.000000 -24.260825 -7.575150 1.090414 -55.227953 -0.620671 -8.687965 -8.786132 -27.876706 3.369437 0.000000 0.000000 0.000000 31.875186 2.015759 2.406452 61.232785 2.536253 -8.397540 6.961560 33.006072 4.372973 0.000000 0.000000 0.000000 
-0.012356 0.934289 -0.055110 0.289857 -2.299062 -1.137541 -0.419827 0.526989 5.336961 2.662568 0.210574 -8.771743 15.438291 27.358270 18.828394 0.000000 0.000000 0.000000 -6.922709 0.346816 -4.220215 3.773825 -0.352160 3.560441 -10.562169 -24.141747 14.256769 0.000000 0.000000 0.000000 2.146695 -0.230425 3.729211 -6.438703 2.274290 -20.105246 -2.467484 8.851404 31.921479 10.314959 -2.821038 -29.007853 0.000000 0.000000 0.000000 -23.737511 -7.793987 0.936507 -54.728944 -0.322707 -8.634868 -7.502595 -28.189202 3.016427 0.000000 0.000000 0.000000 32.702710 2.310762 3.012034 60.720659 4.530782 -7.433488 6.417928 33.715679 4.383310 0.000000 0.000000 0.000000 
-0.018441 0.934135 -0.053999 -0.251733 -1.137173 -1.107729 0.189900 0.436296 4.803765 3.505278 0.126749 -7.955352 14.833867 26.663732 18.339928 0.000000 0.000000 0.000000 -5.590191 0.461988 -6.504208 3.247345 -0.235345 8.173800 -11.429183 -25.478100 14.291670 0.000000 0.000000 0.000000 1.963580 -0.309727 5.215335 -6.857563 2.415863 -20.113297 -2.293403 8.891269 31.849442 10.728028 -2.983357 -28.702038 0.000000 0.000000 0.000000 -23.170623 -8.346304 1.020399 -53.808569 -0.361360 -8.428258 -6.930315 -29.453648 2.939234 0.000000 0.000000 0.000000 33.123623 2.152786 3.277296 60.218423 5.532291 -7.007840 7.240498 35.978674 5.100749 0.000000 0.000000 0.000000 
-0.026017 0.933783 -0.052289 -0.688317 0.195453 -1.364446 1.192548 0.376655 4.821874 3.640905 0.100090 -7.609351 14.049032 25.739267 17.771558 0.000000 0.000000 0.000000 -4.691882 0.689816 -10.153918 3.518759 -0.245928 15.715099 -12.494719 -26.964053 15.371128 0.000000 0.000000 0.000000 1.620604 -0.410099 7.316296 -7.088023 2.521461 -19.822371 -1.794254 8.636724 31.449049 10.472502 -2.974680 -27.290111 0.000000 0.000000 0.000000 -23.599228 -8.697124 0.932660 -52.229299 -0.290062 -8.070803 -5.365405 -30.637063 2.564573 0.000000 0.000000 0.000000 33.035780 2.397625 3.697235 59.798650 7.206339 -6.176216 6.626761 38.070703 5.323772 0.000000 0.000000 0.000000 
-0.034626 0.933623 -0.049119 -1.120886 2.239075 -1.495585 2.177404 0.255060 4.104272 3.994977 0.004403 -6.330156 12.919095 24.390551 16.864017 0.000000 0.000000 0.000000 -4.512817 0.978137 -15.602948 5.393028 -1.021879 26.591825 -13.655292 -28.157635 18.120114 0.000000 0.000000 0.000000 1.598045 -0.546947 9.544020 -6.971965 2.523042 -19.998481 -2.354477 8.094213 31.189033 10.932024 -3.193965 -27.013328 0.000000 0.000000 0.000000 -23.649568 -9.552724 1.144830 -50.615175 0.093514 -7.857578 -4.337462 -32.389267 2.334343 0.000000 0.000000 0.000000 33.175760 2.162576 3.824186 59.559714 8.292489 -5.665934 7.561157 40.233813 6.117101 0.000000 0.000000 0.000000 
